HIERARCHY
ROOT root
{
	OFFSET	0	13.1	24.9
	CHANNELS 6  Xposition Yposition Zposition Xrotation Yrotation Zrotation
	JOINT spine_1
	{
		OFFSET	0	9.99999	0
		CHANNELS 3  Xrotation Yrotation Zrotation
		JOINT spine_2
		{
			OFFSET	0	112	-10
			CHANNELS 3  Xrotation Yrotation Zrotation
			JOINT spine_3
			{
				OFFSET	0	206.5	19.3
				CHANNELS 3  Xrotation Yrotation Zrotation
				JOINT spine_4
				{
					OFFSET	0	110.4	14.6
					CHANNELS 3  Xrotation Yrotation Zrotation
					JOINT neck_1
					{
						OFFSET	0	71.8	-50.3
						CHANNELS 3  Xrotation Yrotation Zrotation
						JOINT neck_2
						{
							OFFSET	0	86.2	-25.8
							CHANNELS 3  Xrotation Yrotation Zrotation
							JOINT head_ee
							{
								OFFSET	0	179.8	-8.7
								CHANNELS 3  Xrotation Yrotation Zrotation
								End Site
								{
									OFFSET	1	0	0
								}
							}
						}
					}
					JOINT left_clavicle
					{
						OFFSET	-43.2	22.4	-70.8
						CHANNELS 3  Xrotation Yrotation Zrotation
						JOINT left_shoulder
						{
							OFFSET	-93.9	-5.79999	48.7
							CHANNELS 3  Xrotation Yrotation Zrotation
							JOINT left_elbow
							{
								OFFSET	-291.4	-30.8	15.2
								CHANNELS 3  Xrotation Yrotation Zrotation
								JOINT left_lowarm_twist
								{
									OFFSET	-110.7	-3.89999	13.6
									CHANNELS 3  Xrotation Yrotation Zrotation
									JOINT left_hand
									{
										OFFSET	-110.7	-3.89999	13.6
										CHANNELS 3  Xrotation Yrotation Zrotation
										JOINT left_ee
										{
											OFFSET	-80.8	-5.10001	12.1
											CHANNELS 3  Xrotation Yrotation Zrotation
											End Site
											{
												OFFSET	1	0	0
											}
										}
									}
								}
							}
						}
					}
					JOINT right_clavicle
					{
						OFFSET	43.2	22.4	-70.8
						CHANNELS 3  Xrotation Yrotation Zrotation
						JOINT right_shoulder
						{
							OFFSET	93.9	-5.79999	48.7
							CHANNELS 3  Xrotation Yrotation Zrotation
							JOINT right_elbow
							{
								OFFSET	291.4	-30.8	15.2
								CHANNELS 3  Xrotation Yrotation Zrotation
								JOINT right_lowarm_twist
								{
									OFFSET	110.7	-3.89999	13.6
									CHANNELS 3  Xrotation Yrotation Zrotation
									JOINT right_hand
									{
										OFFSET	110.7	-3.89999	13.6
										CHANNELS 3  Xrotation Yrotation Zrotation
										JOINT right_ee
										{
											OFFSET	80.8	-5.10001	12.1
											CHANNELS 3  Xrotation Yrotation Zrotation
											End Site
											{
												OFFSET	1	0	0
											}
										}
									}
								}
							}
						}
					}
				}
			}
		}
	}
	JOINT left_hip
	{
		OFFSET	-82.8	-127.5	0.300001
		CHANNELS 3  Xrotation Yrotation Zrotation
		JOINT left_knee
		{
			OFFSET	-28.2	-396.7	2.2
			CHANNELS 3  Xrotation Yrotation Zrotation
			JOINT left_ankle
			{
				OFFSET	-11.7	-411.3	35.4
				CHANNELS 3  Xrotation Yrotation Zrotation
				JOINT left_toes
				{
					OFFSET	0	-60	-88.6
					CHANNELS 3  Xrotation Yrotation Zrotation
					JOINT left_foot_ee
					{
						OFFSET	-22.5	-16.5	-42.2
						CHANNELS 3  Xrotation Yrotation Zrotation
						End Site
						{
							OFFSET	1	0	0
						}
					}
				}
			}
		}
	}
	JOINT right_hip
	{
		OFFSET	82.8	-127.5	0.300001
		CHANNELS 3  Xrotation Yrotation Zrotation
		JOINT right_knee
		{
			OFFSET	28.2	-396.7	2.2
			CHANNELS 3  Xrotation Yrotation Zrotation
			JOINT right_ankle
			{
				OFFSET	11.7	-411.3	35.4
				CHANNELS 3  Xrotation Yrotation Zrotation
				JOINT right_toes
				{
					OFFSET	0	-60	-88.6
					CHANNELS 3  Xrotation Yrotation Zrotation
					JOINT right_foot_ee
					{
						OFFSET	22.5	-16.5	-42.2
						CHANNELS 3  Xrotation Yrotation Zrotation
						End Site
						{
							OFFSET	1	0	0
						}
					}
				}
			}
		}
	}
}
MOTION
Frames: 11
Frame Time: 0.02
813.602234988 611.919 -1804.94159302 -2.17105600434 58.7055832706 10.4523319868 1.56842 -0.561525 -2.18647 1.57098 -0.421292 -2.21775 1.5877 -0.00842847 -2.25737 1.58078 -0.364742 -2.22774 -7.63316 -8.71609 10.8651 -7.25236 -23.9426 9.0622 -0.0 0.0 -0.0 12.0027 -21.1465 23.8542 -4.78389 -31.0587 54.4154 1.03 -27.0315 0.247588 33.43 -0.0523366 -4.21017 -5.42994 -16.4677 -48.5382 -0.0 0.0 -0.0 -0.198425 -23.8016 -2.48191 8.85312 -46.9164 -70.4169 0.559724 15.4973 -0.0761622 83.7548 4.27805 8.8071 -3.18119 -24.8308 8.16726 0.0 0.0 0.0 25.2442 -18.339 -3.00986 -28.7361 0.0903977 4.36301 26.8229 4.85306 -3.54049 -19.1118 0.0 0.0 -0.0 0.0 -0.0 6.36898 12.6342 -11.6091 -23.7464 -0.232378 -3.61066 37.3502 -25.3348 4.91636 40.0569 -0.0 -0.0 0.0 0.0 0.0 
801.891744076 620.712 -1816.68599363 -3.7452987664 60.1788593893 11.7650569729 1.47874 -0.6549 -2.15771 1.48118 -0.516307 -2.19498 1.5015 -0.102688 -2.25252 1.49471 -0.457056 -2.20808 -8.64248 -6.92303 10.5767 -8.34253 -20.3114 8.93122 -0.0 0.0 -0.0 11.8635 -22.8764 23.388 -0.132769 -32.999 53.9886 1.15137 -29.6975 0.305263 36.5894 -0.183856 -4.59199 -5.18908 -12.8856 -44.572 -0.0 0.0 -0.0 0.504049 -22.916 -3.35229 4.3889 -57.7506 -69.9905 0.703745 19.2193 -0.119153 85.3948 4.47385 8.88417 -1.60207 -24.1554 -0.460614 0.0 0.0 0.0 22.0943 -19.3608 -4.02653 -24.0069 0.226592 3.65022 23.2734 -3.37751 -3.17811 -20.6471 0.0 0.0 -0.0 0.0 -0.0 8.86703 13.7499 -11.6155 -22.4956 -0.257653 -3.42039 34.6139 -25.7335 4.64192 40.2415 -0.0 -0.0 0.0 0.0 0.0 
792.55120367 624.899 -1821.95484534 -3.47843645007 61.7280935885 11.5241408732 1.3849 -0.741246 -2.15207 1.38728 -0.602836 -2.19484 1.41104 -0.184244 -2.26862 1.40426 -0.540131 -2.2111 -8.91326 -5.9806 9.32583 -8.69307 -17.6573 7.8389 -0.0 0.0 -0.0 11.8126 -23.1913 23.2424 1.96776 -34.3561 54.4944 1.17355 -30.1702 0.316331 37.3953 -0.220764 -4.68819 -5.03867 -11.9596 -42.7404 -0.0 0.0 -0.0 0.86052 -25.0928 -4.0271 3.82013 -59.6926 -68.2751 0.761122 20.6583 -0.138721 84.9496 4.4205 8.86381 -1.48894 -24.7481 -1.37191 0.0 0.0 0.0 21.4052 -19.7752 -3.92834 -24.7616 0.208812 3.76467 23.2253 -3.59807 -3.17457 -20.6263 0.0 0.0 -0.0 0.0 -0.0 10.2616 14.618 -11.458 -21.0112 -0.282249 -3.19393 31.6289 -26.1347 4.32328 40.268 -0.0 -0.0 0.0 0.0 0.0 
785.372349884 625.683 -1828.78068931 -3.25924489078 62.4877393281 11.2865017907 1.29173 -0.761559 -2.19503 1.29419 -0.620376 -2.23901 1.31921 -0.189569 -2.31558 1.31215 -0.5528 -2.25663 -9.85725 -5.0302 7.72621 -9.73478 -14.6967 6.32755 -0.0 0.0 -0.0 11.9363 -21.7497 23.653 3.88235 -35.9343 54.8134 1.19623 -30.6488 0.327809 36.241 -0.168319 -4.55023 -4.74172 -12.3234 -40.283 -0.0 0.0 -0.0 1.39974 -25.6528 -4.77661 5.78445 -62.1918 -63.4085 0.752887 20.4534 -0.13583 83.4258 4.23904 8.79097 -1.48322 -25.3915 -1.69491 0.0 0.0 0.0 20.6692 -20.0991 -3.83053 -25.5199 0.189432 3.87942 23.4136 -3.85267 -3.19974 -20.36 0.0 0.0 -0.0 0.0 -0.0 11.7849 14.3121 -11.2226 -19.7361 -0.298686 -2.99898 27.3542 -26.7871 3.83741 40.2483 -0.0 -0.0 0.0 0.0 0.0 
780.488978498 621.63 -1833.48806068 -3.52858126463 66.3690745689 12.3671677717 1.16183 -0.967068 -2.2436 1.16426 -0.822381 -2.30055 1.19833 -0.371539 -2.41465 1.19097 -0.748123 -2.32575 -8.33334 -5.57255 6.3754 -8.22768 -14.8824 5.07795 -0.0 0.0 -0.0 11.765 -23.1768 23.1352 5.61781 -36.4363 55.4857 1.30951 -32.9697 0.387534 37.3914 -0.220582 -4.68772 -5.10083 -12.7768 -43.7062 -0.0 0.0 -0.0 0.465858 -26.0021 -3.59068 3.43668 -64.2132 -64.9386 0.63134 17.367 -0.0964236 82.4988 4.12962 8.7443 -1.12878 -25.9833 -3.9364 0.0 0.0 0.0 20.1503 -20.9896 -4.65047 -26.6097 0.158921 4.04388 25.7962 -7.5005 -3.52784 -18.4141 0.0 0.0 -0.0 0.0 -0.0 14.3683 16.7697 -11.5757 -19.5954 -0.300233 -2.97745 26.6796 -26.7324 3.75362 40.2197 -0.0 -0.0 0.0 0.0 0.0 
776.994332294 622.343 -1837.04555858 -5.26118747879 68.4136638322 14.0482777373 1.22326 -0.878686 -2.26166 1.2258 -0.733029 -2.31296 1.25634 -0.283816 -2.40963 1.24884 -0.660707 -2.33463 -9.08506 -2.65249 3.42755 -9.05925 -7.33959 2.74732 -0.0 0.0 -0.0 11.5879 -23.8046 22.6715 8.82113 -38.5461 57.6651 1.25114 -31.7885 0.356275 40.0363 -0.351152 -4.9997 -4.53235 -8.87942 -36.7941 -0.0 0.0 -0.0 3.18702 -24.8452 -7.11049 12.5687 -73.4555 -51.2696 0.868174 23.2707 -0.178772 82.5265 4.13288 8.74573 -1.30667 -28.3139 -3.96274 0.0 0.0 0.0 20.1689 -20.9599 -4.36586 -26.3579 0.166247 4.00594 26.2847 -4.31645 -3.54108 -20.807 0.0 0.0 -0.0 0.0 -0.0 14.3359 16.7256 -10.8743 -16.6868 -0.320372 -2.53168 19.5941 -28.0634 2.86844 40.2039 -0.0 -0.0 0.0 0.0 0.0 
760.544946457 620.35 -1843.18104023 -7.86132605368 70.5611298306 17.3496985982 1.22653 -0.79351 -2.71142 1.23041 -0.619436 -2.75637 1.26133 -0.088782 -2.82367 1.2506 -0.53344 -2.77428 -9.30881 -0.275794 -0.179209 -9.30876 -0.394499 -0.241189 -0.0 0.0 -0.0 11.0531 -23.1388 21.519 10.7218 -41.0448 59.2651 1.34855 -33.7424 0.408996 41.6122 -0.435767 -5.18265 -3.72277 -7.50525 -29.5989 -0.0 0.0 -0.0 4.37463 -12.5013 -8.78345 38.7406 -84.9074 -17.3263 0.769604 20.8688 -0.141728 84.3986 4.35466 8.83803 -0.706178 -28.8163 -7.42421 0.0 0.0 0.0 19.8442 -21.7214 -4.48107 -27.0696 0.145104 4.11312 30.0062 -5.88043 -3.97533 -20.8444 0.0 0.0 -0.0 0.0 -0.0 16.4253 16.1396 -9.95645 -16.6731 -0.320412 -2.52958 14.8182 -28.8451 2.22004 40.1511 -0.0 -0.0 0.0 0.0 0.0 
760.625966027 620.35 -1843.32250154 -7.85015679537 70.5325377497 17.3378531302 1.22653 -0.79351 -2.71142 1.23041 -0.619436 -2.75637 1.26133 -0.088782 -2.82367 1.2506 -0.53344 -2.77428 -9.30881 -0.275794 -0.179209 -9.30876 -0.394499 -0.241189 -0.0 0.0 -0.0 11.0531 -23.1388 21.519 10.7218 -41.0448 59.2651 1.34855 -33.7424 0.408996 41.6122 -0.435767 -5.18265 -3.72277 -7.50525 -29.5989 -0.0 0.0 -0.0 4.37463 -12.5013 -8.78345 38.7406 -84.9074 -17.3263 0.769604 20.8688 -0.141728 84.3986 4.35466 8.83803 -0.706178 -28.8163 -7.42421 0.0 0.0 0.0 19.8442 -21.7214 -4.48107 -27.0696 0.145104 4.11312 30.0062 -5.88043 -3.97533 -20.8444 0.0 0.0 -0.0 0.0 -0.0 16.4253 16.1396 -9.95645 -16.6731 -0.320412 -2.52958 14.8182 -28.8451 2.22004 40.1511 -0.0 -0.0 0.0 0.0 0.0 
760.9258237 620.35 -1843.84462509 -7.80919275306 70.4269282206 17.294391051 1.22653 -0.79351 -2.71142 1.23041 -0.619436 -2.75637 1.26133 -0.088782 -2.82367 1.2506 -0.53344 -2.77428 -9.30881 -0.275794 -0.179209 -9.30876 -0.394499 -0.241189 -0.0 0.0 -0.0 11.0531 -23.1388 21.519 10.7218 -41.0448 59.2651 1.34855 -33.7424 0.408996 41.6122 -0.435767 -5.18265 -3.72277 -7.50525 -29.5989 -0.0 0.0 -0.0 4.37463 -12.5013 -8.78345 38.7406 -84.9074 -17.3263 0.769604 20.8688 -0.141728 84.3986 4.35466 8.83803 -0.706178 -28.8163 -7.42421 0.0 0.0 0.0 19.8442 -21.7214 -4.48107 -27.0696 0.145104 4.11312 30.0062 -5.88043 -3.97533 -20.8444 0.0 0.0 -0.0 0.0 -0.0 16.4253 16.1396 -9.95645 -16.6731 -0.320412 -2.52958 14.8182 -28.8451 2.22004 40.1511 -0.0 -0.0 0.0 0.0 0.0 
761.965425718 620.35 -1845.63762114 -7.67157395984 70.0633160943 17.1481672876 1.22653 -0.79351 -2.71142 1.23041 -0.619436 -2.75637 1.26133 -0.088782 -2.82367 1.2506 -0.53344 -2.77428 -9.30881 -0.275794 -0.179209 -9.30876 -0.394499 -0.241189 -0.0 0.0 -0.0 11.0531 -23.1388 21.519 10.7218 -41.0448 59.2651 1.34855 -33.7424 0.408996 41.6122 -0.435767 -5.18265 -3.72277 -7.50525 -29.5989 -0.0 0.0 -0.0 4.37463 -12.5013 -8.78345 38.7406 -84.9074 -17.3263 0.769604 20.8688 -0.141728 84.3986 4.35466 8.83803 -0.706178 -28.8163 -7.42421 0.0 0.0 0.0 19.8442 -21.7214 -4.48107 -27.0696 0.145104 4.11312 30.0062 -5.88043 -3.97533 -20.8444 0.0 0.0 -0.0 0.0 -0.0 16.4253 16.1396 -9.95645 -16.6731 -0.320412 -2.52958 14.8182 -28.8451 2.22004 40.1511 -0.0 -0.0 0.0 0.0 0.0 
761.66318272 620.35 -1845.11906642 -7.71089695177 70.1686279948 17.1899832032 1.22653 -0.79351 -2.71142 1.23041 -0.619436 -2.75637 1.26133 -0.088782 -2.82367 1.2506 -0.53344 -2.77428 -9.30881 -0.275794 -0.179209 -9.30876 -0.394499 -0.241189 -0.0 0.0 -0.0 11.0531 -23.1388 21.519 10.7218 -41.0448 59.2651 1.34855 -33.7424 0.408996 41.6122 -0.435767 -5.18265 -3.72277 -7.50525 -29.5989 -0.0 0.0 -0.0 4.37463 -12.5013 -8.78345 38.7406 -84.9074 -17.3263 0.769604 20.8688 -0.141728 84.3986 4.35466 8.83803 -0.706178 -28.8163 -7.42421 0.0 0.0 0.0 19.8442 -21.7214 -4.48107 -27.0696 0.145104 4.11312 30.0062 -5.88043 -3.97533 -20.8444 0.0 0.0 -0.0 0.0 -0.0 16.4253 16.1396 -9.95645 -16.6731 -0.320412 -2.52958 14.8182 -28.8451 2.22004 40.1511 -0.0 -0.0 0.0 0.0 0.0 
